SplineFontDB: 3.2
FontName: hiContr_Lite_Medium
FullName: hiContr Lite Medium
FamilyName: hiContr Lite
Weight: Medium
Copyright: Copyright (c) 2022, RandomMaerks (aka Bao Nguyen) (rmforbusiness@gmail.com)
UComments: "2022-1-20: Created with FontForge (http://fontforge.org)"
Version: 1.0
ItalicAngle: 0
UnderlinePosition: -100
UnderlineWidth: 50
Ascent: 800
Descent: 200
InvalidEm: 0
LayerCount: 2
Layer: 0 0 "Back" 1
Layer: 1 0 "Fore" 0
XUID: [1021 301 932173752 10983]
OS2Version: 0
OS2_WeightWidthSlopeOnly: 0
OS2_UseTypoMetrics: 1
CreationTime: 1642688027
ModificationTime: 1642688487
OS2TypoAscent: 0
OS2TypoAOffset: 1
OS2TypoDescent: 0
OS2TypoDOffset: 1
OS2TypoLinegap: 0
OS2WinAscent: 0
OS2WinAOffset: 1
OS2WinDescent: 0
OS2WinDOffset: 1
HheadAscent: 0
HheadAOffset: 1
HheadDescent: 0
HheadDOffset: 1
OS2Vendor: 'PfEd'
MarkAttachClasses: 1
DEI: 91125
Encoding: ISO8859-1
UnicodeInterp: none
NameList: AGL For New Fonts
DisplaySize: -48
AntiAlias: 1
FitToEm: 0
WinInfo: 0 38 14
BeginPrivate: 0
EndPrivate
BeginChars: 256 58

StartChar: n
Encoding: 110 110 0
Width: 419
Flags: HW
LayerCount: 2
Fore
SplineSet
55 500 m 1
 88 500 l 1
 132.833007812 400.278320312 l 1
 149.606445312 463.639648438 180.456054688 523 247 523 c 0
 326.763358778 523 368.5 452.914893617 368.5 340 c 2
 368.5 0 l 1
 275.5 0 l 1
 275.5 360 l 2
 275.5 435.214285714 258.355932204 477 216 477 c 0
 172.377358491 477 148 422.268292683 148 345 c 2
 148 0 l 1
 55 0 l 1
 55 500 l 1
EndSplineSet
EndChar

StartChar: t
Encoding: 116 116 1
Width: 362
Flags: HW
LayerCount: 2
Fore
SplineSet
197 650 m 1
 230 650 l 1
 230 500 l 1
 327 500 l 1
 327 462 l 1
 230 462 l 1
 230 0 l 1
 137 0 l 1
 137 462 l 1
 35 462 l 1
 35 480 l 1
 197 650 l 1
EndSplineSet
EndChar

StartChar: h
Encoding: 104 104 2
Width: 428
Flags: HW
LayerCount: 2
Fore
SplineSet
55 700 m 1
 133 700 l 1
 133 396.935546875 l 1
 150.471966912 470.463867188 189.042016806 523 247 523 c 0
 329.717557252 523 373 452.914893617 373 340 c 2
 373 0 l 1
 280 0 l 1
 280 365 l 2
 280 440.214285714 261.559322034 482 216 482 c 0
 172.377358491 482 148 425.195121952 148 345 c 2
 148 0 l 1
 55 0 l 1
 55 700 l 1
EndSplineSet
EndChar

StartChar: u
Encoding: 117 117 3
Width: 428
Flags: HW
LayerCount: 2
Fore
SplineSet
373 0 m 1
 340 0 l 1
 294.7109375 108.029296875 l 1
 277.661132812 43.0835428913 246.94921875 -18 181 -18 c 0
 98.282442748 -18 55 52.085106383 55 165 c 2
 55 500 l 1
 148 500 l 1
 148 145 l 2
 148 69.7857142858 166.440677966 28 212 28 c 0
 255.622641509 28 280 84.8048780488 280 165 c 2
 280 500 l 1
 373 500 l 1
 373 0 l 1
EndSplineSet
EndChar

StartChar: m
Encoding: 109 109 4
Width: 658
Flags: HW
LayerCount: 2
Fore
SplineSet
55 500 m 1
 88 500 l 1
 132.833007812 400.278320312 l 1
 149.606445312 463.639648438 180.456054688 523 247 523 c 0
 311.461914062 523 350.672376945 472.553710938 370.66015625 419.360351562 c 1
 383.119114841 480.237304688 419.571279177 523 477 523 c 0
 559.717557252 523 603 452.914893617 603 340 c 2
 603 0 l 1
 515 0 l 1
 515 365 l 2
 515 437 495.118644068 477 446 477 c 0
 402.377358491 477 378 426.369565217 378 340 c 2
 378 0 l 1
 285 0 l 1
 285 365 l 2
 285 437 265.118644068 477 216 477 c 0
 172.377358491 477 148 422.268292683 148 345 c 2
 148 0 l 1
 55 0 l 1
 55 500 l 1
EndSplineSet
EndChar

StartChar: r
Encoding: 114 114 5
Width: 408
Flags: HW
LayerCount: 2
Fore
SplineSet
55 500 m 1
 83 500 l 1
 132.833007812 405.278320312 l 1
 150.34104632 468.639648438 182.541729627 528 252 528 c 0
 331.435114504 528 373 456 373 340 c 1
 280 320 l 1
 280 424.142857143 260.118644068 482 211 482 c 0
 170.58490566 482 148 427.268292683 148 350 c 2
 148 0 l 1
 55 0 l 1
 55 500 l 1
EndSplineSet
EndChar

StartChar: o
Encoding: 111 111 6
Width: 414
Flags: HW
LayerCount: 2
Fore
SplineSet
207.5 523 m 0
 283.539548022 523 364 461 364 335 c 2
 364 175 l 2
 364 49 283.539548022 -13 207.5 -13 c 0
 130.974576271 -13 50 49 50 175 c 2
 50 335 l 2
 50 461 130.974576271 523 207.5 523 c 0
207.5 487 m 0
 161.584745763 487 143 447 143 375 c 2
 143 135 l 2
 143 63 161.584745763 23 207.5 23 c 0
 252.70338983 23 271 63 271 135 c 2
 271 375 l 2
 271 447 252.70338983 487 207.5 487 c 0
EndSplineSet
EndChar

StartChar: e
Encoding: 101 101 7
Width: 414
Flags: HW
LayerCount: 2
Fore
SplineSet
143 265.590820312 m 1
 271 282.545898438 l 1
 271 384 l 2
 271 446.161132812 253.084566004 487 207 487 c 0
 161.440677966 487 143 447 143 375 c 2
 143 265.590820312 l 1
143 239.350585938 m 1
 143 135 l 2
 143 63 161.440677966 23 207 23 c 0
 252.559322034 23 271 84.4285714286 271 195 c 1
 364 175 l 1
 364 49 283.282485876 -13 207 -13 c 0
 130.717514124 -13 50 49 50 175 c 2
 50 335 l 2
 50 461 130.717514124 523 207 523 c 0
 283.282485876 523 364 461 364 335 c 2
 364 270 l 1
 143 239.350585938 l 1
EndSplineSet
EndChar

StartChar: c
Encoding: 99 99 8
Width: 414
Flags: HW
LayerCount: 2
Fore
SplineSet
364 335 m 1
 271 315 l 1
 271 425.571428571 252.559322034 487 207 487 c 0
 165 487 148 447 148 375 c 2
 148 135 l 2
 148 63 165 23 207 23 c 0
 252.559322034 23 271 84.4285714286 271 195 c 1
 364 175 l 1
 364 49 283.282485876 -13 207 -13 c 0
 130.717514124 -13 50 49 50 175 c 2
 50 335 l 2
 50 461 130.717514124 523 207 523 c 0
 283.282485876 523 364 461 364 335 c 1
EndSplineSet
EndChar

StartChar: l
Encoding: 108 108 9
Width: 229
Flags: HW
LayerCount: 2
Fore
SplineSet
153 0 m 2
 89.8813559322 0 55 49 55 96 c 2
 55 650 l 1
 148 700 l 1
 148 81 l 2
 148 56.6086956522 158.888888889 48 176 48 c 2
 184 48 l 1
 184 0 l 1
 153 0 l 2
EndSplineSet
EndChar

StartChar: b
Encoding: 98 98 10
Width: 424
Flags: HW
LayerCount: 2
Fore
SplineSet
237 528 m 0
 310.414965986 528 379 456 379 340 c 2
 379 180 l 2
 379 64 310.414965986 -8 237 -8 c 0
 185.104492188 -8 141.338867188 49.2958984375 131.666992188 123.447265625 c 1
 83 0 l 1
 55 0 l 1
 55 700 l 1
 128 700 l 1
 128 414.734375 l 1
 147.3828125 479.25390625 188.663085938 528 237 528 c 0
148 320 m 2
 148 200 l 2
 148 95.8571428575 167.881355932 38 217 38 c 0
 269.677966102 38 291 81.5714285714 291 160 c 2
 291 360 l 2
 291 438.428571428 269.677966102 482 217 482 c 0
 167.881355932 482 148 424.142857143 148 320 c 2
EndSplineSet
EndChar

StartChar: d
Encoding: 100 100 11
Width: 424
Flags: HW
LayerCount: 2
Fore
SplineSet
182 528 m 0
 111.170068027 528 45 456 45 340 c 2
 45 180 l 2
 45 64 111.170068027 -8 182 -8 c 0
 236.358909783 -8 282.202023403 49.2958984375 292.333007812 123.447265625 c 1
 341 0 l 1
 369 0 l 1
 369 700 l 1
 296 700 l 1
 296 414.734375 l 1
 275.72806766 479.25390625 232.554203698 528 182 528 c 0
276 320 m 2
 276 200 l 2
 276 95.8571428575 256.118644068 38 207 38 c 0
 157.881355932 38 138 81.5714285714 138 160 c 2
 138 360 l 2
 138 438.428571428 157.881355932 482 207 482 c 0
 256.118644068 482 276 424.142857143 276 320 c 2
EndSplineSet
EndChar

StartChar: p
Encoding: 112 112 12
Width: 424
Flags: HW
LayerCount: 2
Fore
SplineSet
242 -28 m 0
 312.829931973 -28 379 44 379 160 c 2
 379 320 l 2
 379 436 312.829931973 508 242 508 c 0
 187.641090217 508 141.797976597 450.704101562 131.666992188 376.552734375 c 1
 83 500 l 1
 55 500 l 1
 55 -150 l 1
 128 -150 l 1
 128 85.265625 l 1
 148.271932339 20.74609375 191.445796302 -28 242 -28 c 0
148 180 m 2
 148 300 l 2
 148 404.142857143 167.881355932 462 217 462 c 0
 266.118644068 462 286 418.428571428 286 340 c 2
 286 140 l 2
 286 61.5714285714 266.118644068 18 217 18 c 0
 167.881355932 18 148 75.8571428571 148 180 c 2
EndSplineSet
EndChar

StartChar: q
Encoding: 113 113 13
Width: 424
Flags: HW
LayerCount: 2
Fore
SplineSet
182 -28 m 0
 111.170068027 -28 45 45.914893617 45 165 c 2
 45 325 l 2
 45 437.914893617 111.170068027 508 182 508 c 0
 236.358909783 508 282.202023403 450.704101562 292.333007812 376.552734375 c 1
 341 500 l 1
 369 500 l 1
 369 -150 l 1
 296 -150 l 1
 296 85.265625 l 1
 275.72806766 20.74609375 232.554203698 -28 182 -28 c 0
276 180 m 2
 276 300 l 2
 276 404.142857143 256.118644068 462 207 462 c 0
 157.881355932 462 138 418.428571428 138 340 c 2
 138 140 l 2
 138 61.5714285714 157.881355932 18 207 18 c 0
 256.118644068 18 276 75.8571428571 276 180 c 2
EndSplineSet
EndChar

StartChar: i
Encoding: 105 105 14
Width: 198
Flags: HW
LayerCount: 2
Fore
SplineSet
143 570.5 m 1
 55 570.5 l 1
 55 660 l 1
 143 660 l 1
 143 570.5 l 1
143 0 m 1
 55 0 l 1
 55 500 l 1
 143 500 l 1
 143 0 l 1
EndSplineSet
EndChar

StartChar: a
Encoding: 97 97 15
Width: 434
Flags: HW
LayerCount: 2
Fore
SplineSet
298.243164062 111.01171875 m 1
 288.866626272 52.6780425668 250.029405251 -7.82029480741 180.234338078 -7.82029480741 c 0
 109.754405029 -7.82029480741 55 45.9883374668 55 137 c 0
 55 249.209091824 167 292.649414062 291 292.649414062 c 1
 291 317 l 2
 291 424.357142856 269.677966102 484 217 484 c 0
 164.322033898 484 143 424.357142856 143 317 c 1
 55 337 l 1
 55 467.436170213 138.288135593 520 217 520 c 0
 295.711864407 520 379 463.542553192 379 337 c 2
 379 0 l 1
 345 0 l 1
 298.243164062 111.01171875 l 1
291 264.909179688 m 1
 183.13559322 264.909179688 143 196.199858257 143 148.454101562 c 0
 143 111.861374656 163.603052171 45 217 45 c 0
 269.677966102 45 291 99.2857142854 291 197 c 2
 291 264.909179688 l 1
EndSplineSet
EndChar

StartChar: f
Encoding: 102 102 17
Width: 362
Flags: HW
LayerCount: 2
Fore
SplineSet
270.576171875 673.400390625 m 0
 217.674614018 673.400390625 205 588.547245263 205 500 c 1
 327 500 l 1
 327 462 l 1
 205 462 l 1
 205 0 l 1
 112 0 l 1
 112 462 l 1
 35 462 l 1
 35 500 l 1
 112 500 l 1
 112 659.291992188 180.386387712 720 254 720 c 0
 282 720 296.365234375 713.916992188 310 708 c 1
 310 667 l 1
 310 667 292.080078125 673.400390625 270.576171875 673.400390625 c 0
EndSplineSet
EndChar

StartChar: g
Encoding: 103 103 18
Width: 424
Flags: HW
LayerCount: 2
Fore
SplineSet
276 228 m 2
 276 300 l 2
 276 407.357142857 256.118644068 467 207 467 c 0
 157.881355932 467 138 425.214285714 138 350 c 2
 138 178 l 2
 138 102.785714286 157.881355932 61 207 61 c 0
 256.118644068 61 276 120.642857142 276 228 c 2
182 20 m 0
 111.170068027 20 45 92 45 208 c 2
 45 320 l 2
 45 436 111.170068027 508 182 508 c 0
 246.833594795 508 282.202023403 460.704101562 292.333007812 376.552734375 c 1
 351 500 l 1
 369 500 l 1
 369 -22 l 2
 369 -154 285.711864407 -200 207 -200 c 0
 130.717514124 -200 50 -154 50 -22 c 1
 143 -2 l 1
 143 -116.352941176 161.440677966 -164 207 -164 c 0
 256.118644068 -164 276 -134 276 -62 c 2
 276 103.265625 l 1
 262.269662921 47 233.052471032 20 182 20 c 0
EndSplineSet
EndChar

StartChar: j
Encoding: 106 106 19
Width: 198
Flags: HW
LayerCount: 2
Fore
SplineSet
143 570.5 m 1
 55 570.5 l 1
 55 660 l 1
 143 660 l 1
 143 570.5 l 1
55 -40 m 2
 55 500 l 1
 143 500 l 1
 143 20 l 2
 143 -139.291992188 72.2056408899 -200 -4 -200 c 0
 -32 -200 -46.365234375 -193.916992188 -60 -188 c 1
 -60 -157 l 1
 -60 -157 -42.080078125 -163.400390625 -20.576171875 -163.400390625 c 0
 40.392578125 -163.400390625 55 -103.014648438 55 -40 c 2
EndSplineSet
EndChar

StartChar: k
Encoding: 107 107 20
Width: 412
Flags: HW
LayerCount: 2
Fore
SplineSet
148 0 m 1
 55 0 l 1
 55 700 l 1
 138 700 l 1
 138 220.895507812 l 1
 336.5 500 l 1
 377 500 l 1
 235.627929688 286.509765625 l 1
 377 0 l 1
 284 0 l 1
 172.5 228.387695312 l 1
 148 192.387695312 l 1
 148 0 l 1
EndSplineSet
EndChar

StartChar: v
Encoding: 118 118 21
Width: 388
Flags: HW
LayerCount: 2
Fore
SplineSet
234 30 m 1
 323 500 l 1
 353 500 l 1
 258 0 l 1
 155 0 l 1
 35 500 l 1
 128 500 l 1
 234 30 l 1
EndSplineSet
EndChar

StartChar: w
Encoding: 119 119 22
Width: 648
Flags: HW
LayerCount: 2
Fore
SplineSet
219 30 m 1
 290 500 l 1
 388 500 l 1
 489 30 l 1
 585 500 l 1
 613 500 l 1
 513 0 l 1
 420 0 l 1
 314 457.333007812 l 1
 243 0 l 1
 150 0 l 1
 35 500 l 1
 133 500 l 1
 219 30 l 1
EndSplineSet
EndChar

StartChar: y
Encoding: 121 121 23
Width: 388
Flags: HW
LayerCount: 2
Fore
SplineSet
243 90 m 1
 322 500 l 1
 353 500 l 1
 220.5 -160 l 1
 130.5 -160 l 1
 180 60 l 1
 160 60 l 1
 35 500 l 1
 128 500 l 1
 243 90 l 1
EndSplineSet
EndChar

StartChar: x
Encoding: 120 120 24
Width: 406
Flags: HW
LayerCount: 2
Fore
SplineSet
371 0 m 1
 278 0 l 1
 186 204 l 1
 80 0 l 1
 35 0 l 1
 169 236.614257812 l 1
 35 500 l 1
 128 500 l 1
 219 298 l 1
 333 500 l 1
 371 500 l 1
 236 265.385742188 l 1
 371 0 l 1
EndSplineSet
EndChar

StartChar: z
Encoding: 122 122 25
Width: 408
Flags: HW
LayerCount: 2
Fore
SplineSet
45 417 m 1
 45 500 l 1
 363 500 l 1
 363 415 l 1
 88.9501953123 83 l 1
 363 83 l 1
 363 0 l 1
 45 0 l 1
 45 93 l 1
 318.91015625 417 l 1
 45 417 l 1
EndSplineSet
EndChar

StartChar: s
Encoding: 115 115 26
Width: 414
Flags: HW
LayerCount: 2
Fore
SplineSet
138 382 m 0
 138 337.906777871 147.047984167 295.904492332 201.501953125 278 c 0
 257.945311914 254 369 254.361880384 369 132 c 0
 369 36 285.711864407 -16 207 -16 c 0
 128.288135593 -16 45 46 45 172 c 1
 143 192 l 1
 143 81.4285714286 161.440677966 20 207 20 c 0
 256.118644068 20 276 86.7692307692 276 132 c 0
 276 177.589248848 259.335497479 219.752929688 224.946289062 231 c 0
 162.546279474 258.495117188 45 256.388185845 45 372 c 0
 45 468 128.288135593 520 207 520 c 0
 285.711864407 520 369 468 369 332 c 1
 271 312 l 1
 271 422.571428571 252.559322034 484 207 484 c 0
 157.881355932 484 138 440.083333333 138 382 c 0
EndSplineSet
EndChar

StartChar: H
Encoding: 72 72 27
Width: 498
Flags: HW
LayerCount: 2
Fore
SplineSet
148 0 m 1
 55 0 l 1
 55 700 l 1
 148 700 l 1
 148 399 l 1
 350 399 l 1
 350 700 l 1
 443 700 l 1
 443 0 l 1
 350 0 l 1
 350 363 l 1
 148 363 l 1
 148 0 l 1
EndSplineSet
EndChar

StartChar: N
Encoding: 78 78 28
Width: 498
Flags: HW
LayerCount: 2
Fore
SplineSet
148 0 m 1
 55 0 l 1
 55 700 l 1
 188 700 l 1
 350 56.6669921875 l 1
 350 700 l 1
 443 700 l 1
 443 0 l 1
 320 0 l 1
 148 666.666992188 l 1
 148 0 l 1
EndSplineSet
EndChar

StartChar: M
Encoding: 77 77 29
Width: 662
Flags: HW
LayerCount: 2
Fore
SplineSet
331 26.36328125 m 1
 464 700 l 1
 607 700 l 1
 607 0 l 1
 514 0 l 1
 514 676.666992188 l 1
 372 0 l 1
 290 0 l 1
 148 676.666992188 l 1
 148 0 l 1
 55 0 l 1
 55 700 l 1
 198 700 l 1
 331 26.36328125 l 1
EndSplineSet
EndChar

StartChar: U
Encoding: 85 85 30
Width: 484
Flags: HW
LayerCount: 2
Fore
SplineSet
439 190 m 2
 439 34 331.20754717 -18 242 -18 c 0
 152.79245283 -18 45 34 45 190 c 2
 45 700 l 1
 138 700 l 1
 138 700 138 340 138 160 c 0
 138 68 184.468085106 36 242 36 c 0
 299.531914894 36 346 88 346 160 c 0
 346 700 l 1
 439 700 l 1
 439 190 l 2
EndSplineSet
EndChar

StartChar: O
Encoding: 79 79 31
Width: 484
Flags: HW
LayerCount: 2
Fore
SplineSet
242 718 m 0
 331.20754717 718 439 666 439 510 c 2
 439 190 l 2
 439 34 331.20754717 -18 242 -18 c 0
 152.79245283 -18 45 34 45 190 c 2
 45 510 l 2
 45 666 152.79245283 718 242 718 c 0
242 664 m 0
 184.468085106 664 138 632 138 540 c 2
 138 160 l 2
 138 68 184.468085106 36 242 36 c 0
 299.531914894 36 346 88 346 160 c 2
 346 540 l 2
 346 632 299.531914894 664 242 664 c 0
EndSplineSet
EndChar

StartChar: C
Encoding: 67 67 32
Width: 484
Flags: HW
LayerCount: 2
Fore
SplineSet
439 190 m 1
 439 34 331.20754717 -18 242 -18 c 0
 152.79245283 -18 45 34 45 190 c 2
 45 510 l 2
 45 666 152.79245283 718 242 718 c 0
 331.20754717 718 439 666 439 510 c 1
 346 490 l 1
 346 619.096774194 299.531914894 664 242 664 c 0
 184.468085106 664 138 632 138 540 c 2
 138 160 l 2
 138 68 184.468085106 36 242 36 c 0
 299.531914894 36 346 108.967741935 346 210 c 1
 439 190 l 1
EndSplineSet
EndChar

StartChar: G
Encoding: 71 71 33
Width: 484
Flags: HW
LayerCount: 2
Fore
SplineSet
256 348 m 1
 439 348 l 1
 439 190 l 2
 439 34 331.20754717 -18 242 -18 c 0
 152.79245283 -18 45 34 45 190 c 2
 45 510 l 2
 45 666 152.79245283 718 242 718 c 0
 331.20754717 718 439 666 439 510 c 1
 346 490 l 1
 346 619.096774194 299.531914894 664 242 664 c 0
 184.468085106 664 138 632 138 540 c 2
 138 160 l 2
 138 68 184.468085106 36 242 36 c 0
 299.531914894 36 346 88 346 160 c 2
 346 316 l 1
 246 316 l 1
 256 348 l 1
EndSplineSet
EndChar

StartChar: Q
Encoding: 81 81 34
Width: 484
Flags: HW
LayerCount: 2
Fore
SplineSet
242 664 m 0
 184.468085106 664 138 632 138 540 c 2
 138 160 l 2
 138 68 184.468085106 36 242 36 c 0
 299.531914894 36 346 88 346 160 c 2
 346 540 l 2
 346 632 299.531914894 664 242 664 c 0
242 718 m 0
 331.20754717 718 439 666 439 510 c 2
 439 190 l 2
 439 45.7124512969 347.595028321 -9.60545334316 263.903647363 -17.0986236985 c 1
 250.918241195 -29.1652279898 242 -42.4022111757 242 -56 c 0
 242 -84.6214855597 262.860353029 -95.6093966413 306.91706544 -95.6093966413 c 0
 362.119154202 -95.6093966413 394 -77 394 -77 c 1
 378 -155 l 1
 378 -155 343.798790691 -167.920672756 295.936585528 -167.920672756 c 0
 239.703322054 -167.920672756 171 -151.182416089 171 -79 c 0
 171 -53.5405630961 185.234524096 -30.9769956865 203.449284775 -12.5262073741 c 1
 118.819729528 2.17857246049 45 62.3745763127 45 190 c 2
 45 510 l 2
 45 666 152.79245283 718 242 718 c 0
EndSplineSet
EndChar

StartChar: S
Encoding: 83 83 35
Width: 484
Flags: HW
LayerCount: 2
Fore
SplineSet
45 530 m 0
 45 666 152.79245283 718 242 718 c 0
 331.20754717 718 439 666 439 510 c 1
 341 490 l 1
 341 619.096774194 296.765957447 664 242 664 c 0
 181.702127659 664 133 619.692307692 133 520 c 0
 133 432.81048235 180.925020182 386.261969906 241.651367188 371 c 0
 364.651084182 335 439 305.021484375 439 170 c 0
 439 34 331.20754717 -18 242 -18 c 0
 152.79245283 -18 45 34 45 190 c 1
 143 210 l 1
 143 108.967741935 187.234042553 36 242 36 c 0
 302.297872341 36 351 80.3076923077 351 180 c 0
 351 248.37286769 313.085052072 316.914201386 246.869140625 333 c 0
 125.579056554 367.564426277 45 402.383789062 45 530 c 0
EndSplineSet
EndChar

StartChar: A
Encoding: 65 65 36
Width: 498
Flags: HW
LayerCount: 2
Fore
SplineSet
161.51953125 172 m 1
 128 0 l 1
 35 0 l 1
 190 700 l 1
 323 700 l 1
 463 0 l 1
 370 0 l 1
 340.6796875 172 l 1
 161.51953125 172 l 1
164.98046875 203 m 1
 335.0703125 203 l 1
 254 670 l 1
 164.98046875 203 l 1
EndSplineSet
EndChar

StartChar: V
Encoding: 86 86 37
Width: 498
Flags: HW
LayerCount: 2
Fore
SplineSet
284 20 m 1
 425 700 l 1
 463 700 l 1
 318 0 l 1
 195 0 l 1
 35 700 l 1
 128 700 l 1
 284 20 l 1
EndSplineSet
EndChar

StartChar: W
Encoding: 87 87 38
Width: 820
Flags: HW
LayerCount: 2
Fore
SplineSet
254 30 m 1
 360 700 l 1
 464 700 l 1
 626 30 l 1
 753 700 l 1
 785 700 l 1
 652 0 l 1
 557 0 l 1
 390 671.538085938 l 1
 288 0 l 1
 185 0 l 1
 35 700 l 1
 128 700 l 1
 254 30 l 1
EndSplineSet
EndChar

StartChar: L
Encoding: 76 76 39
Width: 438
Flags: HW
LayerCount: 2
Fore
SplineSet
148 85 m 1
 393 85 l 1
 393 0 l 1
 55 0 l 1
 55 700 l 1
 148 700 l 1
 148 85 l 1
EndSplineSet
EndChar

StartChar: D
Encoding: 68 68 40
Width: 484
Flags: HW
LayerCount: 2
Fore
SplineSet
148 54 m 1
 242 54 l 2
 299.531914894 54 346 106 346 178 c 2
 346 522 l 2
 346 614 299.531914894 646 242 646 c 2
 148 646 l 1
 148 54 l 1
55 0 m 1
 55 700 l 1
 242 700 l 2
 331.20754717 700 439 648 439 492 c 2
 439 208 l 2
 439 52 331.20754717 0 242 0 c 2
 55 0 l 1
EndSplineSet
EndChar

StartChar: I
Encoding: 73 73 41
Width: 198
Flags: HW
LayerCount: 2
Fore
SplineSet
143 0 m 1
 55 0 l 1
 55 700 l 1
 143 700 l 1
 143 0 l 1
EndSplineSet
EndChar

StartChar: B
Encoding: 66 66 42
Width: 484
Flags: HW
LayerCount: 2
Fore
SplineSet
148 79 m 1
 232 79 l 2
 306.420696212 79 343.677734375 128.945917312 343.677734375 232.078125 c 0
 343.677734375 299.397108216 306.482356111 387 232 387 c 2
 148 387 l 1
 148 79 l 1
148 411 m 1
 202 411 l 2
 269.756635045 411 303.677734375 437.081769108 303.677734375 497.078125 c 0
 303.677734375 557.346936051 269.812955399 621 202 621 c 2
 148 621 l 1
 148 411 l 1
325.518554688 407.6484375 m 1
 391 387 439 336.19921875 439 244 c 2
 439 200 l 2
 439 44 331.20754717 0 242 0 c 2
 55 0 l 1
 55 700 l 1
 202 700 l 2
 328.651671609 700 392.131835938 635.813476562 392.131835938 530.719726562 c 0
 392.131835938 449 359 430 325.518554688 407.6484375 c 1
EndSplineSet
EndChar

StartChar: P
Encoding: 80 80 43
Width: 484
Flags: HW
LayerCount: 2
Fore
SplineSet
55 700 m 1
 242 700 l 2
 331.20754717 700 439 650.5 439 502 c 2
 439 458 l 2
 439 324.310810811 360.087912088 300 272 300 c 2
 148 300 l 1
 148 0 l 1
 55 0 l 1
 55 700 l 1
148 334 m 1
 232 334 l 2
 306.420496653 334 343.677734375 382.173791211 343.677734375 475.078125 c 0
 343.677734375 542.684833453 306.482212391 621 232 621 c 2
 148 621 l 1
 148 334 l 1
EndSplineSet
EndChar

StartChar: R
Encoding: 82 82 44
Width: 484
Flags: HW
LayerCount: 2
Fore
SplineSet
148 354 m 1
 242 354 l 2
 309.756635045 354 343.677734375 413.05095226 343.677734375 472.078125 c 0
 343.677734375 551.077397217 309.812955399 617.5 242 617.5 c 2
 148 617.5 l 1
 148 354 l 1
55 700 m 1
 242 700 l 2
 331.20754717 700 439 658 439 502 c 2
 439 488 l 2
 439 381.089231912 372 334.505859375 306.120117188 334.505859375 c 1
 439 0 l 1
 334 0 l 1
 219.526367188 320 l 1
 148 320 l 1
 148 0 l 1
 55 0 l 1
 55 700 l 1
EndSplineSet
EndChar

StartChar: T
Encoding: 84 84 45
Width: 468
Flags: HW
LayerCount: 2
Fore
SplineSet
189 615 m 1
 45 615 l 1
 45 700 l 1
 423 700 l 1
 423 615 l 1
 277 615 l 1
 277 0 l 1
 189 0 l 1
 189 615 l 1
EndSplineSet
EndChar

StartChar: J
Encoding: 74 74 46
Width: 293
Flags: HW
LayerCount: 2
Fore
SplineSet
145 150 m 2
 145 700 l 1
 238 700 l 1
 238 200 l 2
 238 40.7080078125 164.797669492 -20 86 -20 c 0
 58 -20 43.634765625 -13.9169921875 30 -8 c 1
 30 33 l 1
 30 33 47.919921875 26.599609375 69.423828125 26.599609375 c 0
 130.392578125 26.599609375 145 86.985351562 145 150 c 2
EndSplineSet
EndChar

StartChar: E
Encoding: 69 69 47
Width: 438
Flags: HW
LayerCount: 2
Fore
SplineSet
148 386 m 1
 386 386 l 1
 386 340 l 1
 148 340 l 1
 148 84.5 l 1
 408 84.5 l 1
 408 0 l 1
 55 0 l 1
 55 700 l 1
 408 700 l 1
 408 615 l 1
 148 615 l 1
 148 386 l 1
EndSplineSet
EndChar

StartChar: F
Encoding: 70 70 48
Width: 438
Flags: HW
LayerCount: 2
Fore
SplineSet
148 615 m 1
 148 386 l 1
 386 386 l 1
 386 340 l 1
 148 340 l 1
 148 0 l 1
 55 0 l 1
 55 700 l 1
 408 700 l 1
 408 615 l 1
 148 615 l 1
EndSplineSet
EndChar

StartChar: Y
Encoding: 89 89 49
Width: 498
Flags: HW
LayerCount: 2
Fore
SplineSet
269 300 m 1
 415 700 l 1
 463 700 l 1
 294 253 l 1
 294 0 l 1
 209 0 l 1
 209 253 l 1
 35 700 l 1
 128 700 l 1
 269 300 l 1
EndSplineSet
EndChar

StartChar: K
Encoding: 75 75 50
Width: 482
Flags: HW
LayerCount: 2
Fore
SplineSet
148 0 m 1
 55 0 l 1
 55 700 l 1
 148 700 l 1
 148 320.895507812 l 1
 399 700 l 1
 447 700 l 1
 245.627929688 374.509765625 l 1
 437 0 l 1
 331 0 l 1
 176 308.387695312 l 1
 148 272.387695312 l 1
 148 0 l 1
EndSplineSet
EndChar

StartChar: X
Encoding: 88 88 51
Width: 514
Flags: HW
LayerCount: 2
Fore
SplineSet
479 0 m 1
 384 0 l 1
 246 292.5 l 1
 83 0 l 1
 35 0 l 1
 225 329.114257812 l 1
 35 700 l 1
 130 700 l 1
 274 408.5 l 1
 440 700 l 1
 479 700 l 1
 295 371.885742188 l 1
 479 0 l 1
EndSplineSet
EndChar

StartChar: Z
Encoding: 90 90 52
Width: 478
Flags: HW
LayerCount: 2
Fore
SplineSet
45 617 m 1
 45 700 l 1
 433 700 l 1
 433 615 l 1
 88.9501953123 83 l 1
 433 83 l 1
 433 0 l 1
 45 0 l 1
 45 93 l 1
 388.91015625 617 l 1
 45 617 l 1
EndSplineSet
EndChar

StartChar: period
Encoding: 46 46 53
Width: 198
Flags: HW
LayerCount: 2
Fore
SplineSet
145.5 0 m 1
 52.5 0 l 1
 52.5 96 l 1
 145.5 96 l 1
 145.5 0 l 1
EndSplineSet
EndChar

StartChar: comma
Encoding: 44 44 54
Width: 198
Flags: HW
LayerCount: 2
Fore
SplineSet
90 -109 m 1
 60 -90 l 1
 105.224609375 0 l 1
 52.5 0 l 1
 52.5 96 l 1
 145.5 96 l 1
 145.5 0 l 1
 90 -109 l 1
EndSplineSet
EndChar

StartChar: question
Encoding: 63 63 55
Width: 484
Flags: HW
LayerCount: 2
Fore
SplineSet
275.674316406 0 m 1
 182.674316406 0 l 1
 182.674316406 96 l 1
 275.674316406 96 l 1
 275.674316406 0 l 1
268.848632812 297.969726562 m 1
 268.848632812 186 l 1
 184.848632812 186 l 1
 184.848632812 320 l 1
 259.269106833 320 336 375.834862385 336 499 c 0
 336 612.538461538 300.190476191 663 242 663 c 0
 183.80952381 663 148 615.516129032 148 479 c 1
 55 499 l 1
 55 655 153.128712871 707 242 707 c 0
 330.871287129 707 429 655 429 499 c 0
 429 378.994140625 350.229623848 316 268.848632812 297.969726562 c 1
EndSplineSet
EndChar

StartChar: colon
Encoding: 58 58 56
Width: 198
Flags: HW
LayerCount: 2
Fore
SplineSet
145.5 394.5 m 1
 52.5 394.5 l 1
 52.5 490.5 l 1
 145.5 490.5 l 1
 145.5 394.5 l 1
145.5 104 m 1
 52.5 104 l 1
 52.5 200 l 1
 145.5 200 l 1
 145.5 104 l 1
EndSplineSet
EndChar

StartChar: hyphen
Encoding: 45 45 57
Width: 347
Flags: HW
LayerCount: 2
Fore
SplineSet
40 293 m 1
 307 293 l 1
 307 220 l 1
 40 220 l 1
 40 293 l 1
EndSplineSet
EndChar
